<?xml version="1.0" standalone="no"?>
<!DOCTYPE svg PUBLIC "-//W3C//DTD SVG 20010904//EN"
 "http://www.w3.org/TR/2001/REC-SVG-20010904/DTD/svg10.dtd">
<svg version="1.0" xmlns="http://www.w3.org/2000/svg"
 width="135.000000pt" height="135.000000pt" viewBox="0 0 135.000000 135.000000"
 preserveAspectRatio="xMidYMid meet">
<metadata>
Created by potrace 1.14, written by Peter Selinger 2001-2017
</metadata>
<g transform="translate(0.000000,135.000000) scale(0.100000,-0.100000)"
fill="#000000" stroke="none">
<path d="M1043 944 c-21 -21 -24 -31 -18 -57 3 -18 8 -37 9 -44 4 -22 15 -26
33 -12 15 11 16 11 6 -1 -17 -19 -16 -43 1 -37 10 4 12 0 9 -14 -7 -25 1 -24
45 6 40 27 60 33 40 11 -7 -8 -15 -14 -18 -13 -3 0 -13 -3 -22 -7 -24 -11 -23
-46 1 -46 20 0 45 23 35 32 -3 3 3 5 13 5 10 -1 17 3 16 10 -2 8 4 10 14 6 13
-5 15 -2 10 11 -4 11 -3 15 4 10 6 -3 21 4 35 17 31 29 32 80 2 109 -23 21
-72 27 -83 10 -4 -6 -16 -3 -32 10 -35 27 -69 25 -100 -6z"/>
<path d="M1111 664 c0 -11 3 -14 6 -6 3 7 2 16 -1 19 -3 4 -6 -2 -5 -13z"/>
<path d="M1111 604 c0 -11 3 -14 6 -6 3 7 2 16 -1 19 -3 4 -6 -2 -5 -13z"/>
<path d="M1092 542 c-7 -23 -27 -53 -47 -71 -33 -28 -39 -30 -100 -27 -44 3
-83 -2 -125 -15 -111 -34 -184 -21 -260 48 -55 49 -102 71 -144 67 -15 -2 -75
-26 -132 -55 -76 -37 -111 -49 -129 -45 -14 4 -25 10 -25 15 0 17 -30 40 -45
35 -39 -15 11 -88 65 -96 39 -6 85 11 167 60 38 23 81 43 97 46 36 6 87 -15
123 -50 67 -67 188 -86 294 -45 38 14 76 21 118 20 48 -1 69 3 89 18 29 21 76
105 70 124 -2 7 -9 -6 -16 -29z"/>
</g>
</svg>
